<mxfile host="65bd71144e">
    <diagram id="KyJZB9gIDR80UrhLf8IB" name="Page-1">
        <mxGraphModel dx="3386" dy="3171" grid="0" gridSize="10" guides="1" tooltips="1" connect="1" arrows="1" fold="1" page="0" pageScale="1" pageWidth="827" pageHeight="1169" background="#000000" math="0" shadow="0">
            <root>
                <mxCell id="0"/>
                <mxCell id="1" parent="0"/>
                <mxCell id="121" value="" style="edgeStyle=none;hachureGap=4;fontFamily=Architects Daughter;fontSource=https%3A%2F%2Ffonts.googleapis.com%2Fcss%3Ffamily%3DArchitects%2BDaughter;fontSize=23;exitX=0.2;exitY=0.865;exitDx=0;exitDy=0;exitPerimeter=0;strokeColor=#FFB3BF;labelBorderColor=default;html=1;" edge="1" parent="1" source="124" target="125">
                    <mxGeometry relative="1" as="geometry"/>
                </mxCell>
                <mxCell id="122" value="" style="edgeStyle=none;hachureGap=4;fontFamily=Architects Daughter;fontSource=https%3A%2F%2Ffonts.googleapis.com%2Fcss%3Ffamily%3DArchitects%2BDaughter;fontSize=23;exitX=1;exitY=1;exitDx=0;exitDy=0;strokeColor=#21FF29;labelBorderColor=default;html=1;" edge="1" parent="1" source="124" target="126">
                    <mxGeometry relative="1" as="geometry"/>
                </mxCell>
                <mxCell id="123" value="" style="edgeStyle=none;hachureGap=4;fontFamily=Comic Sans MS;fontSize=30;strokeColor=#26BCFC;labelBorderColor=default;html=1;fontStyle=1;textDirection=ltr;spacing=2;" edge="1" parent="1" source="124" target="127">
                    <mxGeometry relative="1" as="geometry"/>
                </mxCell>
                <mxCell id="200" value="" style="edgeStyle=none;hachureGap=4;exitX=1;exitY=1;exitDx=0;exitDy=0;fontFamily=Architects Daughter;fontSource=https%3A%2F%2Ffonts.googleapis.com%2Fcss%3Ffamily%3DArchitects%2BDaughter;fontSize=23;fillColor=#79E87C;gradientColor=#21FF29;entryX=0;entryY=0.5;entryDx=0;entryDy=0;strokeColor=#FAFF5E;labelBorderColor=default;html=1;" edge="1" parent="1" source="124" target="201">
                    <mxGeometry relative="1" as="geometry">
                        <mxPoint x="664.384765625" y="-1675.9934768676758" as="targetPoint"/>
                    </mxGeometry>
                </mxCell>
                <mxCell id="124" value="&lt;b&gt;&lt;font style=&quot;font-size: 35px;&quot; face=&quot;Comic Sans MS&quot;&gt;backend&lt;/font&gt;&lt;/b&gt;" style="ellipse;hachureGap=4;fontFamily=Architects Daughter;fontSource=https%3A%2F%2Ffonts.googleapis.com%2Fcss%3Ffamily%3DArchitects%2BDaughter;fontSize=23;rounded=1;labelBorderColor=default;whiteSpace=wrap;html=1;fillColor=#CC99FF;strokeColor=#9673a6;" vertex="1" parent="1">
                    <mxGeometry x="73" y="-1798" width="190" height="96" as="geometry"/>
                </mxCell>
                <mxCell id="125" value="Buyers" style="rounded=1;fontSize=30;fontFamily=Comic Sans MS;strokeColor=#b85450;hachureGap=4;gradientColor=#FFB3BF;labelBorderColor=default;whiteSpace=wrap;html=1;fontStyle=1;textDirection=ltr;spacing=2;" vertex="1" parent="1">
                    <mxGeometry x="-834" y="-1738" width="120" height="60" as="geometry"/>
                </mxCell>
                <mxCell id="126" value="Sellers" style="rounded=1;fontSize=30;fontFamily=Comic Sans MS;strokeColor=#82b366;hachureGap=4;fillColor=#FFFFFF;gradientColor=#B4E8A5;labelBorderColor=default;whiteSpace=wrap;html=1;fontStyle=1;textDirection=ltr;spacing=2;" vertex="1" parent="1">
                    <mxGeometry x="312" y="-1562" width="120" height="60" as="geometry"/>
                </mxCell>
                <mxCell id="127" value="Users" style="fontSize=30;fontFamily=Comic Sans MS;strokeColor=#6c8ebf;hachureGap=4;fillColor=#FFFFFF;gradientColor=#26BCFC;swimlaneFillColor=#26BCFC;rounded=1;labelBorderColor=default;whiteSpace=wrap;html=1;fontStyle=1;textDirection=ltr;spacing=2;" vertex="1" parent="1">
                    <mxGeometry x="-97" y="-1562" width="120" height="60" as="geometry"/>
                </mxCell>
                <mxCell id="128" value="buyers_model" style="shape=table;startSize=30;container=1;collapsible=0;childLayout=tableLayout;fontStyle=0;align=center;hachureGap=4;fontFamily=Comic Sans MS;fontSize=30;fillColor=default;gradientColor=#FFB3BF;swimlaneFillColor=#FFB3BF;rounded=1;labelBorderColor=default;whiteSpace=wrap;html=1;" vertex="1" parent="1">
                    <mxGeometry x="-1319" y="-1480" width="1030" height="275" as="geometry"/>
                </mxCell>
                <mxCell id="129" value="" style="shape=tableRow;horizontal=0;startSize=0;swimlaneHead=0;swimlaneBody=0;top=0;left=0;bottom=0;right=0;collapsible=0;dropTarget=0;fillColor=none;points=[[0,0.5],[1,0.5]];portConstraint=eastwest;hachureGap=4;fontFamily=Comic Sans MS;fontSize=30;rounded=1;labelBorderColor=default;whiteSpace=wrap;html=1;fontStyle=0" vertex="1" parent="128">
                    <mxGeometry y="30" width="1030" height="74" as="geometry"/>
                </mxCell>
                <mxCell id="130" value="id(pk)" style="shape=partialRectangle;connectable=0;fillColor=none;top=0;left=0;bottom=0;right=0;overflow=hidden;hachureGap=4;fontFamily=Comic Sans MS;fontSize=30;rounded=1;labelBorderColor=default;whiteSpace=wrap;html=1;fontStyle=0" vertex="1" parent="129">
                    <mxGeometry width="345" height="74" as="geometry">
                        <mxRectangle width="345" height="74" as="alternateBounds"/>
                    </mxGeometry>
                </mxCell>
                <mxCell id="131" value="&lt;span style=&quot;font-weight: 700;&quot;&gt;buyers&lt;/span&gt;_name" style="shape=partialRectangle;connectable=0;fillColor=none;top=0;left=0;bottom=0;right=0;overflow=hidden;hachureGap=4;fontFamily=Comic Sans MS;fontSize=30;rounded=1;labelBorderColor=default;whiteSpace=wrap;html=1;fontStyle=0;textDirection=ltr;spacing=2;" vertex="1" parent="129">
                    <mxGeometry x="345" width="340" height="74" as="geometry">
                        <mxRectangle width="340" height="74" as="alternateBounds"/>
                    </mxGeometry>
                </mxCell>
                <mxCell id="132" value="&lt;span style=&quot;font-weight: 700;&quot;&gt;buyers&lt;/span&gt;_id" style="shape=partialRectangle;connectable=0;fillColor=none;top=0;left=0;bottom=0;right=0;overflow=hidden;hachureGap=4;fontFamily=Comic Sans MS;fontSize=30;rounded=1;labelBorderColor=default;whiteSpace=wrap;html=1;fontStyle=0;textDirection=ltr;spacing=2;" vertex="1" parent="129">
                    <mxGeometry x="685" width="345" height="74" as="geometry">
                        <mxRectangle width="345" height="74" as="alternateBounds"/>
                    </mxGeometry>
                </mxCell>
                <mxCell id="133" value="" style="shape=tableRow;horizontal=0;startSize=0;swimlaneHead=0;swimlaneBody=0;top=0;left=0;bottom=0;right=0;collapsible=0;dropTarget=0;fillColor=none;points=[[0,0.5],[1,0.5]];portConstraint=eastwest;hachureGap=4;fontFamily=Comic Sans MS;fontSize=30;rounded=1;labelBorderColor=default;whiteSpace=wrap;html=1;fontStyle=0" vertex="1" parent="128">
                    <mxGeometry y="104" width="1030" height="97" as="geometry"/>
                </mxCell>
                <mxCell id="134" value="access_key&amp;nbsp;" style="shape=partialRectangle;connectable=0;fillColor=none;top=0;left=0;bottom=0;right=0;overflow=hidden;hachureGap=4;fontFamily=Comic Sans MS;fontSize=30;rounded=1;labelBorderColor=default;whiteSpace=wrap;html=1;fontStyle=0" vertex="1" parent="133">
                    <mxGeometry width="345" height="97" as="geometry">
                        <mxRectangle width="345" height="97" as="alternateBounds"/>
                    </mxGeometry>
                </mxCell>
                <mxCell id="135" value="crdit_card" style="shape=partialRectangle;connectable=0;fillColor=none;top=0;left=0;bottom=0;right=0;overflow=hidden;hachureGap=4;fontFamily=Comic Sans MS;fontSize=30;rounded=1;labelBorderColor=default;whiteSpace=wrap;html=1;fontStyle=0;textDirection=ltr;spacing=2;" vertex="1" parent="133">
                    <mxGeometry x="345" width="340" height="97" as="geometry">
                        <mxRectangle width="340" height="97" as="alternateBounds"/>
                    </mxGeometry>
                </mxCell>
                <mxCell id="136" value="bank_accuont" style="shape=partialRectangle;connectable=0;fillColor=none;top=0;left=0;bottom=0;right=0;overflow=hidden;hachureGap=4;fontFamily=Comic Sans MS;fontSize=30;rounded=1;labelBorderColor=default;whiteSpace=wrap;html=1;fontStyle=0;textDirection=ltr;spacing=2;" vertex="1" parent="133">
                    <mxGeometry x="685" width="345" height="97" as="geometry">
                        <mxRectangle width="345" height="97" as="alternateBounds"/>
                    </mxGeometry>
                </mxCell>
                <mxCell id="137" value="" style="shape=tableRow;horizontal=0;startSize=0;swimlaneHead=0;swimlaneBody=0;top=0;left=0;bottom=0;right=0;collapsible=0;dropTarget=0;fillColor=none;points=[[0,0.5],[1,0.5]];portConstraint=eastwest;hachureGap=4;fontFamily=Comic Sans MS;fontSize=30;rounded=1;labelBorderColor=default;whiteSpace=wrap;html=1;fontStyle=0" vertex="1" parent="128">
                    <mxGeometry y="201" width="1030" height="74" as="geometry"/>
                </mxCell>
                <mxCell id="138" value="phone_num&#9;" style="shape=partialRectangle;connectable=0;fillColor=none;top=0;left=0;bottom=0;right=0;overflow=hidden;hachureGap=4;fontFamily=Comic Sans MS;fontSize=30;rounded=1;labelBorderColor=default;whiteSpace=wrap;html=1;fontStyle=0" vertex="1" parent="137">
                    <mxGeometry width="345" height="74" as="geometry">
                        <mxRectangle width="345" height="74" as="alternateBounds"/>
                    </mxGeometry>
                </mxCell>
                <mxCell id="139" value="primary_password" style="shape=partialRectangle;connectable=0;fillColor=none;top=0;left=0;bottom=0;right=0;overflow=hidden;hachureGap=4;fontFamily=Comic Sans MS;fontSize=30;rounded=1;labelBorderColor=default;whiteSpace=wrap;html=1;fontStyle=0;textDirection=ltr;spacing=2;" vertex="1" parent="137">
                    <mxGeometry x="345" width="340" height="74" as="geometry">
                        <mxRectangle width="340" height="74" as="alternateBounds"/>
                    </mxGeometry>
                </mxCell>
                <mxCell id="140" value="email +img" style="shape=partialRectangle;connectable=0;fillColor=none;top=0;left=0;bottom=0;right=0;overflow=hidden;hachureGap=4;fontFamily=Comic Sans MS;fontSize=30;rounded=1;labelBorderColor=default;whiteSpace=wrap;html=1;fontStyle=0;textDirection=ltr;spacing=2;" vertex="1" parent="137">
                    <mxGeometry x="685" width="345" height="74" as="geometry">
                        <mxRectangle width="345" height="74" as="alternateBounds"/>
                    </mxGeometry>
                </mxCell>
                <mxCell id="142" value="sellers_model" style="shape=table;startSize=30;container=1;collapsible=0;childLayout=tableLayout;fontStyle=1;align=center;hachureGap=4;fontFamily=Comic Sans MS;fontSize=30;fillColor=#B4E8A5;strokeColor=#82b366;gradientColor=#FFFFFF;swimlaneFillColor=#B4E8A5;rounded=1;labelBorderColor=default;whiteSpace=wrap;html=1;textDirection=ltr;spacing=2;" vertex="1" parent="1">
                    <mxGeometry x="182" y="-1131" width="1424" height="234" as="geometry"/>
                </mxCell>
                <mxCell id="143" value="" style="shape=tableRow;horizontal=0;startSize=0;swimlaneHead=0;swimlaneBody=0;top=0;left=0;bottom=0;right=0;collapsible=0;dropTarget=0;fillColor=none;points=[[0,0.5],[1,0.5]];portConstraint=eastwest;hachureGap=4;fontFamily=Comic Sans MS;fontSize=30;rounded=1;labelBorderColor=default;whiteSpace=wrap;html=1;fontStyle=1;textDirection=ltr;spacing=2;" vertex="1" parent="142">
                    <mxGeometry y="30" width="1424" height="59" as="geometry"/>
                </mxCell>
                <mxCell id="144" value="id(pk)" style="shape=partialRectangle;connectable=0;fillColor=none;top=0;left=0;bottom=0;right=0;overflow=hidden;hachureGap=4;fontFamily=Comic Sans MS;fontSize=30;rounded=1;labelBorderColor=default;whiteSpace=wrap;html=1;fontStyle=1;textDirection=ltr;spacing=2;" vertex="1" parent="143">
                    <mxGeometry width="503" height="59" as="geometry">
                        <mxRectangle width="503" height="59" as="alternateBounds"/>
                    </mxGeometry>
                </mxCell>
                <mxCell id="145" value="seller_name" style="shape=partialRectangle;connectable=0;fillColor=none;top=0;left=0;bottom=0;right=0;overflow=hidden;hachureGap=4;fontFamily=Comic Sans MS;fontSize=30;rounded=1;labelBorderColor=default;whiteSpace=wrap;html=1;fontStyle=1;textDirection=ltr;spacing=2;" vertex="1" parent="143">
                    <mxGeometry x="503" width="445" height="59" as="geometry">
                        <mxRectangle width="445" height="59" as="alternateBounds"/>
                    </mxGeometry>
                </mxCell>
                <mxCell id="146" value="seller_id" style="shape=partialRectangle;connectable=0;fillColor=none;top=0;left=0;bottom=0;right=0;overflow=hidden;hachureGap=4;fontFamily=Comic Sans MS;fontSize=30;rounded=1;labelBorderColor=default;whiteSpace=wrap;html=1;fontStyle=1;textDirection=ltr;spacing=2;" vertex="1" parent="143">
                    <mxGeometry x="948" width="476" height="59" as="geometry">
                        <mxRectangle width="476" height="59" as="alternateBounds"/>
                    </mxGeometry>
                </mxCell>
                <mxCell id="147" value="" style="shape=tableRow;horizontal=0;startSize=0;swimlaneHead=0;swimlaneBody=0;top=0;left=0;bottom=0;right=0;collapsible=0;dropTarget=0;fillColor=none;points=[[0,0.5],[1,0.5]];portConstraint=eastwest;hachureGap=4;fontFamily=Comic Sans MS;fontSize=30;rounded=1;labelBorderColor=default;whiteSpace=wrap;html=1;fontStyle=1;textDirection=ltr;spacing=2;" vertex="1" parent="142">
                    <mxGeometry y="89" width="1424" height="86" as="geometry"/>
                </mxCell>
                <mxCell id="148" value="user_id (user.model)" style="shape=partialRectangle;connectable=0;fillColor=none;top=0;left=0;bottom=0;right=0;overflow=hidden;hachureGap=4;fontFamily=Comic Sans MS;fontSize=30;rounded=1;labelBorderColor=default;whiteSpace=wrap;html=1;fontStyle=1;textDirection=ltr;spacing=2;" vertex="1" parent="147">
                    <mxGeometry width="503" height="86" as="geometry">
                        <mxRectangle width="503" height="86" as="alternateBounds"/>
                    </mxGeometry>
                </mxCell>
                <mxCell id="149" value="bank_accuont" style="shape=partialRectangle;connectable=0;fillColor=none;top=0;left=0;bottom=0;right=0;overflow=hidden;hachureGap=4;fontFamily=Comic Sans MS;fontSize=30;rounded=1;labelBorderColor=default;whiteSpace=wrap;html=1;fontStyle=1;textDirection=ltr;spacing=2;" vertex="1" parent="147">
                    <mxGeometry x="503" width="445" height="86" as="geometry">
                        <mxRectangle width="445" height="86" as="alternateBounds"/>
                    </mxGeometry>
                </mxCell>
                <mxCell id="150" value="phone_num&#9;" style="shape=partialRectangle;connectable=0;fillColor=none;top=0;left=0;bottom=0;right=0;overflow=hidden;hachureGap=4;fontFamily=Comic Sans MS;fontSize=30;rounded=1;labelBorderColor=default;whiteSpace=wrap;html=1;fontStyle=1;textDirection=ltr;spacing=2;" vertex="1" parent="147">
                    <mxGeometry x="948" width="476" height="86" as="geometry">
                        <mxRectangle width="476" height="86" as="alternateBounds"/>
                    </mxGeometry>
                </mxCell>
                <mxCell id="151" value="" style="shape=tableRow;horizontal=0;startSize=0;swimlaneHead=0;swimlaneBody=0;top=0;left=0;bottom=0;right=0;collapsible=0;dropTarget=0;fillColor=none;points=[[0,0.5],[1,0.5]];portConstraint=eastwest;hachureGap=4;fontFamily=Comic Sans MS;fontSize=30;rounded=1;labelBorderColor=default;whiteSpace=wrap;html=1;fontStyle=1;textDirection=ltr;spacing=2;" vertex="1" parent="142">
                    <mxGeometry y="175" width="1424" height="59" as="geometry"/>
                </mxCell>
                <mxCell id="152" value="email&amp;nbsp;&#9;" style="shape=partialRectangle;connectable=0;fillColor=none;top=0;left=0;bottom=0;right=0;overflow=hidden;hachureGap=4;fontFamily=Comic Sans MS;fontSize=30;rounded=1;labelBorderColor=default;whiteSpace=wrap;html=1;fontStyle=1;textDirection=ltr;spacing=2;" vertex="1" parent="151">
                    <mxGeometry width="503" height="59" as="geometry">
                        <mxRectangle width="503" height="59" as="alternateBounds"/>
                    </mxGeometry>
                </mxCell>
                <mxCell id="153" value="primary_password" style="shape=partialRectangle;connectable=0;fillColor=none;top=0;left=0;bottom=0;right=0;overflow=hidden;hachureGap=4;fontFamily=Comic Sans MS;fontSize=30;rounded=1;labelBorderColor=default;whiteSpace=wrap;html=1;fontStyle=1;textDirection=ltr;spacing=2;" vertex="1" parent="151">
                    <mxGeometry x="503" width="445" height="59" as="geometry">
                        <mxRectangle width="445" height="59" as="alternateBounds"/>
                    </mxGeometry>
                </mxCell>
                <mxCell id="154" value="img" style="shape=partialRectangle;connectable=0;fillColor=none;top=0;left=0;bottom=0;right=0;overflow=hidden;hachureGap=4;fontFamily=Comic Sans MS;fontSize=30;rounded=1;labelBorderColor=default;whiteSpace=wrap;html=1;fontStyle=1;textDirection=ltr;spacing=2;" vertex="1" parent="151">
                    <mxGeometry x="948" width="476" height="59" as="geometry">
                        <mxRectangle width="476" height="59" as="alternateBounds"/>
                    </mxGeometry>
                </mxCell>
                <mxCell id="156" value="user_model" style="shape=table;startSize=30;container=1;collapsible=0;childLayout=tableLayout;fontStyle=1;align=center;hachureGap=4;fontFamily=Comic Sans MS;fontSize=30;fillColor=default;gradientColor=#26BCFC;swimlaneFillColor=#26BCFC;rounded=1;labelBorderColor=default;whiteSpace=wrap;html=1;textDirection=ltr;spacing=2;" vertex="1" parent="1">
                    <mxGeometry x="-1150" y="-1131" width="1292" height="242" as="geometry"/>
                </mxCell>
                <mxCell id="157" value="" style="shape=tableRow;horizontal=0;startSize=0;swimlaneHead=0;swimlaneBody=0;top=0;left=0;bottom=0;right=0;collapsible=0;dropTarget=0;fillColor=none;points=[[0,0.5],[1,0.5]];portConstraint=eastwest;hachureGap=4;fontFamily=Comic Sans MS;fontSize=30;rounded=1;labelBorderColor=default;whiteSpace=wrap;html=1;fontStyle=1;textDirection=ltr;spacing=2;" vertex="1" parent="156">
                    <mxGeometry y="30" width="1292" height="61" as="geometry"/>
                </mxCell>
                <mxCell id="158" value="id(pk)" style="shape=partialRectangle;connectable=0;fillColor=none;top=0;left=0;bottom=0;right=0;overflow=hidden;hachureGap=4;fontFamily=Comic Sans MS;fontSize=30;rounded=1;labelBorderColor=default;whiteSpace=wrap;html=1;fontStyle=1;textDirection=ltr;spacing=2;" vertex="1" parent="157">
                    <mxGeometry width="456" height="61" as="geometry">
                        <mxRectangle width="456" height="61" as="alternateBounds"/>
                    </mxGeometry>
                </mxCell>
                <mxCell id="159" value="user_fullname" style="shape=partialRectangle;connectable=0;fillColor=none;top=0;left=0;bottom=0;right=0;overflow=hidden;hachureGap=4;fontFamily=Comic Sans MS;fontSize=30;rounded=1;labelBorderColor=default;whiteSpace=wrap;html=1;fontStyle=1;textDirection=ltr;spacing=2;" vertex="1" parent="157">
                    <mxGeometry x="456" width="404" height="61" as="geometry">
                        <mxRectangle width="404" height="61" as="alternateBounds"/>
                    </mxGeometry>
                </mxCell>
                <mxCell id="160" value="buyers_id" style="shape=partialRectangle;connectable=0;fillColor=none;top=0;left=0;bottom=0;right=0;overflow=hidden;hachureGap=4;fontFamily=Comic Sans MS;fontSize=30;rounded=1;labelBorderColor=default;whiteSpace=wrap;html=1;fontStyle=1;textDirection=ltr;spacing=2;" vertex="1" parent="157">
                    <mxGeometry x="860" width="432" height="61" as="geometry">
                        <mxRectangle width="432" height="61" as="alternateBounds"/>
                    </mxGeometry>
                </mxCell>
                <mxCell id="161" value="" style="shape=tableRow;horizontal=0;startSize=0;swimlaneHead=0;swimlaneBody=0;top=0;left=0;bottom=0;right=0;collapsible=0;dropTarget=0;fillColor=none;points=[[0,0.5],[1,0.5]];portConstraint=eastwest;hachureGap=4;fontFamily=Comic Sans MS;fontSize=30;rounded=1;labelBorderColor=default;whiteSpace=wrap;html=1;fontStyle=1;textDirection=ltr;spacing=2;" vertex="1" parent="156">
                    <mxGeometry y="91" width="1292" height="90" as="geometry"/>
                </mxCell>
                <mxCell id="162" value="access_key &lt;br style=&quot;font-size: 30px;&quot;&gt;(from buyers)" style="shape=partialRectangle;connectable=0;fillColor=none;top=0;left=0;bottom=0;right=0;overflow=hidden;hachureGap=4;fontFamily=Comic Sans MS;fontSize=30;rounded=1;labelBorderColor=default;whiteSpace=wrap;html=1;fontStyle=1;textDirection=ltr;spacing=2;" vertex="1" parent="161">
                    <mxGeometry width="456" height="90" as="geometry">
                        <mxRectangle width="456" height="90" as="alternateBounds"/>
                    </mxGeometry>
                </mxCell>
                <mxCell id="163" value="user_id" style="shape=partialRectangle;connectable=0;fillColor=none;top=0;left=0;bottom=0;right=0;overflow=hidden;hachureGap=4;fontFamily=Comic Sans MS;fontSize=30;rounded=1;labelBorderColor=default;whiteSpace=wrap;html=1;fontStyle=1;textDirection=ltr;spacing=2;" vertex="1" parent="161">
                    <mxGeometry x="456" width="404" height="90" as="geometry">
                        <mxRectangle width="404" height="90" as="alternateBounds"/>
                    </mxGeometry>
                </mxCell>
                <mxCell id="164" value="phone_num&#9;" style="shape=partialRectangle;connectable=0;fillColor=none;top=0;left=0;bottom=0;right=0;overflow=hidden;hachureGap=4;fontFamily=Comic Sans MS;fontSize=30;rounded=1;labelBorderColor=default;whiteSpace=wrap;html=1;fontStyle=1;textDirection=ltr;spacing=2;" vertex="1" parent="161">
                    <mxGeometry x="860" width="432" height="90" as="geometry">
                        <mxRectangle width="432" height="90" as="alternateBounds"/>
                    </mxGeometry>
                </mxCell>
                <mxCell id="165" value="" style="shape=tableRow;horizontal=0;startSize=0;swimlaneHead=0;swimlaneBody=0;top=0;left=0;bottom=0;right=0;collapsible=0;dropTarget=0;fillColor=none;points=[[0,0.5],[1,0.5]];portConstraint=eastwest;hachureGap=4;fontFamily=Comic Sans MS;fontSize=30;rounded=1;labelBorderColor=default;whiteSpace=wrap;html=1;fontStyle=1;textDirection=ltr;spacing=2;" vertex="1" parent="156">
                    <mxGeometry y="181" width="1292" height="61" as="geometry"/>
                </mxCell>
                <mxCell id="166" value="email&amp;nbsp;&#9;" style="shape=partialRectangle;connectable=0;fillColor=none;top=0;left=0;bottom=0;right=0;overflow=hidden;hachureGap=4;fontFamily=Comic Sans MS;fontSize=30;rounded=1;labelBorderColor=default;whiteSpace=wrap;html=1;fontStyle=1;textDirection=ltr;spacing=2;" vertex="1" parent="165">
                    <mxGeometry width="456" height="61" as="geometry">
                        <mxRectangle width="456" height="61" as="alternateBounds"/>
                    </mxGeometry>
                </mxCell>
                <mxCell id="167" value="primary_password" style="shape=partialRectangle;connectable=0;fillColor=none;top=0;left=0;bottom=0;right=0;overflow=hidden;hachureGap=4;fontFamily=Comic Sans MS;fontSize=30;rounded=1;labelBorderColor=default;whiteSpace=wrap;html=1;fontStyle=1;textDirection=ltr;spacing=2;" vertex="1" parent="165">
                    <mxGeometry x="456" width="404" height="61" as="geometry">
                        <mxRectangle width="404" height="61" as="alternateBounds"/>
                    </mxGeometry>
                </mxCell>
                <mxCell id="168" value="img" style="shape=partialRectangle;connectable=0;fillColor=none;top=0;left=0;bottom=0;right=0;overflow=hidden;hachureGap=4;fontFamily=Comic Sans MS;fontSize=30;rounded=1;labelBorderColor=default;whiteSpace=wrap;html=1;fontStyle=1;textDirection=ltr;spacing=2;" vertex="1" parent="165">
                    <mxGeometry x="860" width="432" height="61" as="geometry">
                        <mxRectangle width="432" height="61" as="alternateBounds"/>
                    </mxGeometry>
                </mxCell>
                <mxCell id="173" value="" style="shape=singleArrow;direction=south;hachureGap=4;fontFamily=Comic Sans MS;fontSize=30;fillColor=default;gradientColor=#FFB3BF;rounded=1;labelBorderColor=default;whiteSpace=wrap;html=1;fontStyle=1;textDirection=ltr;spacing=2;" vertex="1" parent="1">
                    <mxGeometry x="-800" y="-1682" width="60" height="194" as="geometry"/>
                </mxCell>
                <mxCell id="176" value="" style="shape=singleArrow;direction=south;hachureGap=4;fontFamily=Comic Sans MS;fontSize=30;fillColor=#FFFFFF;strokeColor=#82b366;gradientColor=#B4E8A5;rounded=1;labelBorderColor=default;whiteSpace=wrap;html=1;fontStyle=1;textDirection=ltr;spacing=2;" vertex="1" parent="1">
                    <mxGeometry x="346" y="-1502" width="60" height="365" as="geometry"/>
                </mxCell>
                <mxCell id="177" value="" style="shape=singleArrow;direction=south;hachureGap=4;fontFamily=Comic Sans MS;fontSize=30;fillColor=default;gradientColor=#26BCFC;swimlaneFillColor=#26BCFC;rounded=1;labelBorderColor=default;whiteSpace=wrap;html=1;fontStyle=1;textDirection=ltr;spacing=2;" vertex="1" parent="1">
                    <mxGeometry x="-70" y="-1498" width="60" height="365" as="geometry"/>
                </mxCell>
                <mxCell id="183" value="user_model" style="shape=table;startSize=30;container=1;collapsible=0;childLayout=tableLayout;fontStyle=1;align=center;hachureGap=4;fontFamily=Comic Sans MS;fontSize=30;fillColor=default;gradientColor=#FAFF5E;swimlaneFillColor=#FAFF5E;rounded=1;strokeColor=default;swimlaneLine=1;labelBorderColor=none;html=1;whiteSpace=wrap;fontColor=default;verticalAlign=middle;horizontal=1;textDirection=ltr;spacing=2;" vertex="1" parent="1">
                    <mxGeometry x="611" y="-1482" width="1136" height="247.9000244140625" as="geometry"/>
                </mxCell>
                <mxCell id="184" value="" style="shape=tableRow;horizontal=0;startSize=0;swimlaneHead=0;swimlaneBody=0;top=0;left=0;bottom=0;right=0;collapsible=0;dropTarget=0;fillColor=none;points=[[0,0.5],[1,0.5]];portConstraint=eastwest;hachureGap=4;fontFamily=Comic Sans MS;fontSize=30;rounded=1;labelBorderColor=default;whiteSpace=wrap;html=1;fontStyle=1;textDirection=ltr;spacing=2;" vertex="1" parent="183">
                    <mxGeometry y="30" width="1136" height="71" as="geometry"/>
                </mxCell>
                <mxCell id="185" value="id(pk)" style="shape=partialRectangle;connectable=0;fillColor=none;top=0;left=0;bottom=0;right=0;overflow=hidden;hachureGap=4;fontFamily=Comic Sans MS;fontSize=30;rounded=1;labelBorderColor=default;whiteSpace=wrap;html=1;fontStyle=1;textDirection=ltr;spacing=2;" vertex="1" parent="184">
                    <mxGeometry width="402" height="71" as="geometry">
                        <mxRectangle width="402" height="71" as="alternateBounds"/>
                    </mxGeometry>
                </mxCell>
                <mxCell id="186" value="&lt;p style=&quot;line-height: 0%;&quot;&gt;company_id&lt;/p&gt;" style="shape=partialRectangle;connectable=0;fillColor=none;top=0;left=0;bottom=0;right=0;overflow=hidden;hachureGap=4;fontFamily=Comic Sans MS;fontSize=30;rounded=1;labelBorderColor=default;whiteSpace=wrap;html=1;fontStyle=1;textDirection=ltr;spacing=2;flipH=0;flipV=1;" vertex="1" parent="184">
                    <mxGeometry x="402" width="354" height="71" as="geometry">
                        <mxRectangle width="354" height="71" as="alternateBounds"/>
                    </mxGeometry>
                </mxCell>
                <mxCell id="187" value="user_id" style="shape=partialRectangle;connectable=0;fillColor=none;top=0;left=0;bottom=0;right=0;overflow=hidden;hachureGap=4;fontFamily=Comic Sans MS;fontSize=30;rounded=1;labelBorderColor=default;whiteSpace=wrap;html=1;fontStyle=1;textDirection=ltr;spacing=2;" vertex="1" parent="184">
                    <mxGeometry x="756" width="380" height="71" as="geometry">
                        <mxRectangle width="380" height="71" as="alternateBounds"/>
                    </mxGeometry>
                </mxCell>
                <mxCell id="188" value="" style="shape=tableRow;horizontal=0;startSize=0;swimlaneHead=0;swimlaneBody=0;top=0;left=0;bottom=0;right=0;collapsible=0;dropTarget=0;fillColor=none;points=[[0,0.5],[1,0.5]];portConstraint=eastwest;hachureGap=4;fontFamily=Comic Sans MS;fontSize=30;rounded=1;labelBorderColor=default;whiteSpace=wrap;html=1;fontStyle=1;textDirection=ltr;spacing=2;" vertex="1" parent="183">
                    <mxGeometry y="101" width="1136" height="80" as="geometry"/>
                </mxCell>
                <mxCell id="189" value="seller_id" style="shape=partialRectangle;connectable=0;fillColor=none;top=0;left=0;bottom=0;right=0;overflow=hidden;hachureGap=4;fontFamily=Comic Sans MS;fontSize=30;rounded=1;labelBorderColor=default;whiteSpace=wrap;html=1;fontStyle=1;textDirection=ltr;spacing=2;" vertex="1" parent="188">
                    <mxGeometry width="402" height="80" as="geometry">
                        <mxRectangle width="402" height="80" as="alternateBounds"/>
                    </mxGeometry>
                </mxCell>
                <mxCell id="190" value="number of transactions" style="shape=partialRectangle;connectable=0;fillColor=none;top=0;left=0;bottom=0;right=0;overflow=hidden;hachureGap=4;fontFamily=Comic Sans MS;fontSize=30;rounded=1;labelBorderColor=default;whiteSpace=wrap;html=1;fontStyle=1;textDirection=ltr;spacing=2;" vertex="1" parent="188">
                    <mxGeometry x="402" width="354" height="80" as="geometry">
                        <mxRectangle width="354" height="80" as="alternateBounds"/>
                    </mxGeometry>
                </mxCell>
                <mxCell id="191" value="" style="shape=partialRectangle;connectable=0;fillColor=none;top=0;left=0;bottom=0;right=0;overflow=hidden;hachureGap=4;fontFamily=Comic Sans MS;fontSize=30;rounded=1;labelBorderColor=default;whiteSpace=wrap;html=1;fontStyle=1;textDirection=ltr;spacing=2;" vertex="1" parent="188">
                    <mxGeometry x="756" width="380" height="80" as="geometry">
                        <mxRectangle width="380" height="80" as="alternateBounds"/>
                    </mxGeometry>
                </mxCell>
                <mxCell id="192" value="" style="shape=tableRow;horizontal=0;startSize=0;swimlaneHead=0;swimlaneBody=0;top=0;left=0;bottom=0;right=0;collapsible=0;dropTarget=0;fillColor=none;points=[[0,0.5],[1,0.5]];portConstraint=eastwest;hachureGap=4;fontFamily=Comic Sans MS;fontSize=30;rounded=1;labelBorderColor=default;whiteSpace=wrap;html=1;fontStyle=1;textDirection=ltr;spacing=2;" vertex="1" parent="183">
                    <mxGeometry y="181" width="1136" height="67" as="geometry"/>
                </mxCell>
                <mxCell id="193" value="" style="shape=partialRectangle;connectable=0;fillColor=none;top=0;left=0;bottom=0;right=0;overflow=hidden;hachureGap=4;fontFamily=Comic Sans MS;fontSize=30;rounded=1;labelBorderColor=default;whiteSpace=wrap;html=1;fontStyle=1;textDirection=ltr;spacing=2;" vertex="1" parent="192">
                    <mxGeometry width="402" height="67" as="geometry">
                        <mxRectangle width="402" height="67" as="alternateBounds"/>
                    </mxGeometry>
                </mxCell>
                <mxCell id="194" value="" style="shape=partialRectangle;connectable=0;fillColor=none;top=0;left=0;bottom=0;right=0;overflow=hidden;hachureGap=4;fontFamily=Comic Sans MS;fontSize=30;rounded=1;labelBorderColor=default;whiteSpace=wrap;html=1;fontStyle=1;textDirection=ltr;spacing=2;" vertex="1" parent="192">
                    <mxGeometry x="402" width="354" height="67" as="geometry">
                        <mxRectangle width="354" height="67" as="alternateBounds"/>
                    </mxGeometry>
                </mxCell>
                <mxCell id="195" value="" style="shape=partialRectangle;connectable=0;fillColor=none;top=0;left=0;bottom=0;right=0;overflow=hidden;hachureGap=4;fontFamily=Comic Sans MS;fontSize=30;rounded=1;labelBorderColor=default;whiteSpace=wrap;html=1;fontStyle=1;textDirection=ltr;spacing=2;" vertex="1" parent="192">
                    <mxGeometry x="756" width="380" height="67" as="geometry">
                        <mxRectangle width="380" height="67" as="alternateBounds"/>
                    </mxGeometry>
                </mxCell>
                <mxCell id="196" value="" style="shape=singleArrow;direction=south;hachureGap=4;fontFamily=Comic Sans MS;fontSize=30;fillColor=#fff2cc;swimlaneFillColor=#26BCFC;strokeColor=#d6b656;gradientColor=#FAFF5E;rounded=1;labelBorderColor=default;whiteSpace=wrap;html=1;fontStyle=1;textDirection=ltr;spacing=2;" vertex="1" parent="1">
                    <mxGeometry x="875" y="-1622" width="60" height="144" as="geometry"/>
                </mxCell>
                <mxCell id="201" value="&lt;font face=&quot;Comic Sans MS&quot;&gt;&lt;b&gt;DataBase&lt;/b&gt;&lt;/font&gt;" style="rounded=1;fontSize=30;fontFamily=Architects Daughter;strokeColor=#d6b656;hachureGap=4;fontSource=https%3A%2F%2Ffonts.googleapis.com%2Fcss%3Ffamily%3DArchitects%2BDaughter;fillColor=#FFFFFF;gradientColor=#FAFF5E;labelBorderColor=default;whiteSpace=wrap;html=1;fontStyle=0" vertex="1" parent="1">
                    <mxGeometry x="785" y="-1721" width="246" height="96" as="geometry"/>
                </mxCell>
                <mxCell id="203" value="" style="html=1;whiteSpace=wrap;shape=isoCube2;backgroundOutline=1;isoAngle=15;labelBorderColor=none;fontFamily=Comic Sans MS;fontSize=35;fontColor=default;fillColor=#CC99FF;" vertex="1" parent="1">
                    <mxGeometry x="-167" y="-390" width="312" height="310" as="geometry"/>
                </mxCell>
                <mxCell id="204" value="" style="html=1;whiteSpace=wrap;aspect=fixed;shape=isoRectangle;labelBorderColor=none;fontFamily=Comic Sans MS;fontSize=35;fontColor=default;fillColor=#00CC66;" vertex="1" parent="1">
                    <mxGeometry x="-2" y="-114" width="158.99" height="95.4" as="geometry"/>
                </mxCell>
                <mxCell id="205" value="" style="html=1;whiteSpace=wrap;aspect=fixed;shape=isoRectangle;labelBorderColor=none;fontFamily=Comic Sans MS;fontSize=35;fontColor=default;fillColor=#00CC66;" vertex="1" parent="1">
                    <mxGeometry x="113" y="-122" width="150" height="90" as="geometry"/>
                </mxCell>
                <mxCell id="206" value="" style="html=1;whiteSpace=wrap;aspect=fixed;shape=isoRectangle;labelBorderColor=none;fontFamily=Comic Sans MS;fontSize=35;fontColor=default;fillColor=#00CC66;" vertex="1" parent="1">
                    <mxGeometry x="73" y="-196" width="150" height="90" as="geometry"/>
                </mxCell>
                <mxCell id="208" value="" style="shape=cylinder3;whiteSpace=wrap;html=1;boundedLbl=1;backgroundOutline=1;size=15;labelBorderColor=none;fontFamily=Comic Sans MS;fontSize=35;fontColor=default;fillColor=#CC0000;" vertex="1" parent="1">
                    <mxGeometry x="-41" y="-345" width="60" height="57" as="geometry"/>
                </mxCell>
                <mxCell id="210" value="" style="shape=ext;double=1;rounded=1;whiteSpace=wrap;html=1;labelBackgroundColor=#707070;labelBorderColor=none;fontFamily=Comic Sans MS;fontSize=35;fontColor=default;fillColor=#CAC8CC;gradientColor=#5C5C5C;arcSize=19;direction=south;rotation=60;" vertex="1" parent="1">
                    <mxGeometry x="47" y="-267" width="42" height="124" as="geometry"/>
                </mxCell>
                <mxCell id="211" value="" style="curved=1;endArrow=baseDash;html=1;labelBorderColor=default;fontFamily=Comic Sans MS;fontSize=35;fontColor=default;strokeWidth=2;endFill=0;" edge="1" parent="1">
                    <mxGeometry width="50" height="50" relative="1" as="geometry">
                        <mxPoint x="165" y="-49" as="sourcePoint"/>
                        <mxPoint x="215" y="-99" as="targetPoint"/>
                        <Array as="points">
                            <mxPoint x="215" y="-49"/>
                            <mxPoint x="165" y="-99"/>
                            <mxPoint x="190" y="-99"/>
                        </Array>
                    </mxGeometry>
                </mxCell>
                <mxCell id="212" value="" style="curved=1;endArrow=baseDash;html=1;labelBorderColor=default;fontFamily=Comic Sans MS;fontSize=35;fontColor=default;strokeWidth=2;endFill=0;" edge="1" parent="1">
                    <mxGeometry width="50" height="50" relative="1" as="geometry">
                        <mxPoint x="121" y="-129" as="sourcePoint"/>
                        <mxPoint x="171" y="-179" as="targetPoint"/>
                        <Array as="points">
                            <mxPoint x="171" y="-129"/>
                            <mxPoint x="121" y="-179"/>
                            <mxPoint x="146" y="-179"/>
                        </Array>
                    </mxGeometry>
                </mxCell>
                <mxCell id="213" value="" style="curved=1;endArrow=baseDash;html=1;labelBorderColor=default;fontFamily=Comic Sans MS;fontSize=35;fontColor=default;strokeWidth=2;endFill=0;" edge="1" parent="1">
                    <mxGeometry width="50" height="50" relative="1" as="geometry">
                        <mxPoint x="49" y="-41.3" as="sourcePoint"/>
                        <mxPoint x="99" y="-91.3" as="targetPoint"/>
                        <Array as="points">
                            <mxPoint x="99" y="-41.3"/>
                            <mxPoint x="49" y="-91.3"/>
                            <mxPoint x="74" y="-91.3"/>
                        </Array>
                    </mxGeometry>
                </mxCell>
                <mxCell id="215" value="" style="shape=link;html=1;labelBorderColor=default;strokeWidth=2;fontFamily=Comic Sans MS;fontSize=35;fontColor=default;endArrow=baseDash;endFill=0;width=8.571428571428573;entryX=0.703;entryY=0.25;entryDx=0;entryDy=0;entryPerimeter=0;" edge="1" parent="1" target="204">
                    <mxGeometry width="100" relative="1" as="geometry">
                        <mxPoint x="43" y="-59" as="sourcePoint"/>
                        <mxPoint x="123" y="-64" as="targetPoint"/>
                    </mxGeometry>
                </mxCell>
                <mxCell id="216" value="" style="shape=link;html=1;labelBorderColor=default;strokeWidth=2;fontFamily=Comic Sans MS;fontSize=35;fontColor=default;endArrow=baseDash;endFill=0;width=8.571428571428573;entryX=0.703;entryY=0.25;entryDx=0;entryDy=0;entryPerimeter=0;" edge="1" parent="1">
                    <mxGeometry width="100" relative="1" as="geometry">
                        <mxPoint x="156.99" y="-67.85000000000045" as="sourcePoint"/>
                        <mxPoint x="223.7599700000003" y="-98.99999999999963" as="targetPoint"/>
                    </mxGeometry>
                </mxCell>
                <mxCell id="217" value="" style="shape=link;html=1;labelBorderColor=default;strokeWidth=2;fontFamily=Comic Sans MS;fontSize=35;fontColor=default;endArrow=baseDash;endFill=0;width=8.571428571428573;entryX=0.703;entryY=0.25;entryDx=0;entryDy=0;entryPerimeter=0;" edge="1" parent="1">
                    <mxGeometry width="100" relative="1" as="geometry">
                        <mxPoint x="106" y="-143.00000000000045" as="sourcePoint"/>
                        <mxPoint x="172.76997000000028" y="-174.14999999999964" as="targetPoint"/>
                    </mxGeometry>
                </mxCell>
                <mxCell id="222" value="" style="edgeStyle=none;html=1;labelBorderColor=default;strokeWidth=2;fontFamily=Comic Sans MS;fontSize=38;fontColor=#9152FF;endArrow=baseDash;endFill=0;" edge="1" parent="1" source="218" target="221">
                    <mxGeometry relative="1" as="geometry"/>
                </mxCell>
                <mxCell id="218" value="&lt;b&gt;&lt;font color=&quot;#592bab&quot; style=&quot;font-size: 38px;&quot;&gt;Safety cloud&lt;/font&gt;&lt;/b&gt;" style="ellipse;shape=cloud;whiteSpace=wrap;html=1;labelBackgroundColor=none;labelBorderColor=none;fontFamily=Comic Sans MS;fontSize=35;fontColor=#9152FF;fillColor=#CC99FF;gradientColor=#FFFFFF;verticalAlign=middle;horizontal=1;labelPosition=center;verticalLabelPosition=middle;align=center;" vertex="1" parent="1">
                    <mxGeometry x="184.5" y="-437" width="375" height="254" as="geometry"/>
                </mxCell>
                <mxCell id="221" value="&lt;p style=&quot;line-height: 120%;&quot;&gt;&lt;/p&gt;&lt;div style=&quot;&quot;&gt;&lt;b&gt;&lt;font style=&quot;font-size: 113px;&quot; color=&quot;#ffffff&quot;&gt;Rotschild&amp;nbsp;&lt;/font&gt;&lt;/b&gt;&lt;/div&gt;&lt;p&gt;&lt;/p&gt;" style="shape=tape;whiteSpace=wrap;html=1;fontSize=35;fontFamily=Comic Sans MS;fillColor=#9933FF;fontColor=#9152FF;labelBackgroundColor=none;labelBorderColor=none;gradientColor=#B266FF;size=0.7053578694661471;align=center;labelPosition=center;verticalLabelPosition=top;verticalAlign=bottom;spacing=-54;" vertex="1" parent="1">
                    <mxGeometry x="-341" y="-523" width="684" height="96" as="geometry"/>
                </mxCell>
                <mxCell id="226" value="&lt;font style=&quot;font-size: 58px;&quot;&gt;frontend&lt;/font&gt;" style="ellipse;whiteSpace=wrap;html=1;labelBackgroundColor=none;labelBorderColor=none;fontFamily=Comic Sans MS;fontSize=30;fontColor=#FFFFFF;fillColor=#3BB7FF;gradientColor=#B266FF;" vertex="1" parent="1">
                    <mxGeometry x="-316" y="255" width="353" height="160" as="geometry"/>
                </mxCell>
                <mxCell id="234" style="edgeStyle=none;html=1;labelBorderColor=#FF0000;strokeWidth=2;fontFamily=Comic Sans MS;fontSize=46;fontColor=#FFFFFF;endArrow=baseDash;endFill=0;" edge="1" parent="1">
                    <mxGeometry relative="1" as="geometry">
                        <mxPoint x="162.5714285714289" y="600.4285714285716" as="targetPoint"/>
                        <mxPoint x="-493" y="907" as="sourcePoint"/>
                    </mxGeometry>
                </mxCell>
                <mxCell id="231" value="Autentication" style="rounded=1;whiteSpace=wrap;html=1;labelBackgroundColor=none;labelBorderColor=none;fontFamily=Comic Sans MS;fontSize=30;fontColor=#050505;fillColor=#FFFF00;gradientColor=none;" vertex="1" parent="1">
                    <mxGeometry x="-838" y="825" width="351" height="93" as="geometry"/>
                </mxCell>
                <mxCell id="240" style="edgeStyle=none;html=1;exitX=1;exitY=0;exitDx=0;exitDy=0;entryX=1;entryY=0.25;entryDx=0;entryDy=0;labelBorderColor=#FF0000;strokeColor=#FFFFFF;strokeWidth=2;fontFamily=Comic Sans MS;fontSize=46;fontColor=#FFFFFF;endArrow=baseDash;endFill=0;" edge="1" parent="1" source="231" target="231">
                    <mxGeometry relative="1" as="geometry"/>
                </mxCell>
                <mxCell id="241" value="" style="edgeStyle=elbowEdgeStyle;elbow=horizontal;endArrow=classic;html=1;curved=0;rounded=0;labelBorderColor=#FF0000;strokeColor=#9673a6;strokeWidth=2;fontFamily=Comic Sans MS;fontSize=46;fontColor=#FFFFFF;shape=arrow;fillColor=#D771E7;" edge="1" parent="1">
                    <mxGeometry width="50" height="50" relative="1" as="geometry">
                        <mxPoint x="-486" y="834" as="sourcePoint"/>
                        <mxPoint x="-280" y="684" as="targetPoint"/>
                        <Array as="points">
                            <mxPoint x="-400" y="697"/>
                        </Array>
                    </mxGeometry>
                </mxCell>
                <mxCell id="242" value="" style="edgeStyle=elbowEdgeStyle;elbow=horizontal;endArrow=classic;html=1;curved=0;rounded=0;labelBorderColor=#FF0000;strokeColor=#b85450;strokeWidth=2;fontFamily=Comic Sans MS;fontSize=46;fontColor=#FFFFFF;exitX=1;exitY=1;exitDx=0;exitDy=0;shape=arrow;fillColor=#f8cecc;entryX=0;entryY=0.25;entryDx=0;entryDy=0;" edge="1" parent="1" source="231" target="243">
                    <mxGeometry width="50" height="50" relative="1" as="geometry">
                        <mxPoint x="-473" y="974.25" as="sourcePoint"/>
                        <mxPoint x="-310" y="970" as="targetPoint"/>
                        <Array as="points">
                            <mxPoint x="-386" y="823"/>
                        </Array>
                    </mxGeometry>
                </mxCell>
                <mxCell id="243" value="Seller" style="rounded=1;whiteSpace=wrap;html=1;labelBackgroundColor=none;labelBorderColor=none;fontFamily=Comic Sans MS;fontSize=30;fillColor=#f8cecc;strokeColor=#b85450;" vertex="1" parent="1">
                    <mxGeometry x="-316" y="1032" width="351" height="93" as="geometry"/>
                </mxCell>
                <mxCell id="244" value="Buyer" style="rounded=1;whiteSpace=wrap;html=1;labelBackgroundColor=none;labelBorderColor=none;fontFamily=Comic Sans MS;fontSize=30;fillColor=#D771E7;strokeColor=#9673a6;" vertex="1" parent="1">
                    <mxGeometry x="-278" y="607" width="351" height="93" as="geometry"/>
                </mxCell>
                <mxCell id="246" value="User" style="rounded=1;whiteSpace=wrap;html=1;labelBackgroundColor=none;labelBorderColor=none;fontFamily=Comic Sans MS;fontSize=30;fillColor=#63FFB6;strokeColor=#82b366;" vertex="1" parent="1">
                    <mxGeometry x="-309" y="1328" width="351" height="93" as="geometry"/>
                </mxCell>
                <mxCell id="247" value="" style="edgeStyle=elbowEdgeStyle;elbow=horizontal;endArrow=classic;html=1;curved=0;rounded=0;labelBorderColor=#FF0000;strokeColor=#9673a6;strokeWidth=2;fontFamily=Comic Sans MS;fontSize=46;fontColor=#FFFFFF;shape=arrow;fillColor=#D771E7;" edge="1" parent="1">
                    <mxGeometry width="50" height="50" relative="1" as="geometry">
                        <mxPoint x="74" y="644" as="sourcePoint"/>
                        <mxPoint x="323" y="641" as="targetPoint"/>
                        <Array as="points">
                            <mxPoint x="164" y="517"/>
                        </Array>
                    </mxGeometry>
                </mxCell>
                <mxCell id="248" value="buyer_homeP" style="rounded=1;whiteSpace=wrap;html=1;labelBackgroundColor=none;labelBorderColor=none;fontFamily=Comic Sans MS;fontSize=30;fillColor=#D771E7;strokeColor=#9673a6;" vertex="1" parent="1">
                    <mxGeometry x="332" y="594" width="351" height="93" as="geometry"/>
                </mxCell>
                <mxCell id="249" value="" style="edgeStyle=elbowEdgeStyle;elbow=horizontal;endArrow=classic;html=1;curved=0;rounded=0;labelBorderColor=#FF0000;strokeColor=#9673a6;strokeWidth=2;fontFamily=Comic Sans MS;fontSize=46;fontColor=#FFFFFF;shape=arrow;fillColor=#D771E7;entryX=0;entryY=0.5;entryDx=0;entryDy=0;" edge="1" parent="1" target="250">
                    <mxGeometry width="50" height="50" relative="1" as="geometry">
                        <mxPoint x="671" y="604" as="sourcePoint"/>
                        <mxPoint x="937" y="638.9999999999995" as="targetPoint"/>
                        <Array as="points">
                            <mxPoint x="778" y="515"/>
                        </Array>
                    </mxGeometry>
                </mxCell>
                <mxCell id="250" value="add/update_user" style="rounded=1;whiteSpace=wrap;html=1;labelBackgroundColor=none;labelBorderColor=none;fontFamily=Comic Sans MS;fontSize=30;fillColor=#D771E7;strokeColor=#9673a6;" vertex="1" parent="1">
                    <mxGeometry x="802" y="497" width="351" height="93" as="geometry"/>
                </mxCell>
                <mxCell id="251" value="data_base + activ ?" style="rounded=1;whiteSpace=wrap;html=1;labelBackgroundColor=none;labelBorderColor=none;fontFamily=Comic Sans MS;fontSize=30;fillColor=#D771E7;strokeColor=#9673a6;" vertex="1" parent="1">
                    <mxGeometry x="799" y="610" width="351" height="93" as="geometry"/>
                </mxCell>
                <mxCell id="252" value="" style="edgeStyle=elbowEdgeStyle;elbow=horizontal;endArrow=classic;html=1;curved=0;rounded=0;labelBorderColor=#FF0000;strokeColor=#FFFFFF;strokeWidth=2;fontFamily=Comic Sans MS;fontSize=46;fontColor=#FFFFFF;shape=arrow;fillColor=#B266FF;entryX=0;entryY=0.387;entryDx=0;entryDy=0;exitX=1;exitY=0;exitDx=0;exitDy=0;entryPerimeter=0;" edge="1" parent="1" target="251">
                    <mxGeometry width="50" height="50" relative="1" as="geometry">
                        <mxPoint x="679.9999999999991" y="651.5000000000005" as="sourcePoint"/>
                        <mxPoint x="799" y="601.0000000000005" as="targetPoint"/>
                        <Array as="points">
                            <mxPoint x="775" y="572.5"/>
                        </Array>
                    </mxGeometry>
                </mxCell>
                <mxCell id="253" value="" style="edgeStyle=elbowEdgeStyle;elbow=horizontal;endArrow=classic;html=1;curved=0;rounded=0;labelBorderColor=#FF0000;strokeColor=#9673a6;strokeWidth=2;fontFamily=Comic Sans MS;fontSize=46;fontColor=#FFFFFF;shape=arrow;fillColor=#D771E7;entryX=0;entryY=0.25;entryDx=0;entryDy=0;" edge="1" parent="1" target="254">
                    <mxGeometry width="50" height="50" relative="1" as="geometry">
                        <mxPoint x="668" y="688" as="sourcePoint"/>
                        <mxPoint x="763" y="751" as="targetPoint"/>
                        <Array as="points">
                            <mxPoint x="756" y="613.51"/>
                        </Array>
                    </mxGeometry>
                </mxCell>
                <mxCell id="254" value="permissions" style="rounded=1;whiteSpace=wrap;html=1;labelBackgroundColor=none;labelBorderColor=none;fontFamily=Comic Sans MS;fontSize=30;fillColor=#D771E7;strokeColor=#9673a6;" vertex="1" parent="1">
                    <mxGeometry x="799" y="716" width="351" height="93" as="geometry"/>
                </mxCell>
                <mxCell id="255" value="" style="edgeStyle=elbowEdgeStyle;elbow=horizontal;endArrow=classic;html=1;curved=0;rounded=0;labelBorderColor=#FF0000;strokeColor=#9673a6;strokeWidth=2;fontFamily=Comic Sans MS;fontSize=46;fontColor=#FFFFFF;shape=arrow;fillColor=#D771E7;entryX=0.009;entryY=0.645;entryDx=0;entryDy=0;entryPerimeter=0;" edge="1" parent="1" target="256">
                    <mxGeometry width="50" height="50" relative="1" as="geometry">
                        <mxPoint x="605" y="588" as="sourcePoint"/>
                        <mxPoint x="764" y="468" as="targetPoint"/>
                        <Array as="points">
                            <mxPoint x="706" y="515"/>
                        </Array>
                    </mxGeometry>
                </mxCell>
                <mxCell id="256" value="&lt;span style=&quot;font-weight: 700;&quot;&gt;number of transactions&lt;/span&gt;" style="rounded=1;whiteSpace=wrap;html=1;labelBackgroundColor=none;labelBorderColor=none;fontFamily=Comic Sans MS;fontSize=30;fillColor=#D771E7;strokeColor=#9673a6;" vertex="1" parent="1">
                    <mxGeometry x="802" y="396" width="351" height="93" as="geometry"/>
                </mxCell>
                <mxCell id="258" value="" style="edgeStyle=elbowEdgeStyle;elbow=horizontal;endArrow=classic;html=1;curved=0;rounded=0;labelBorderColor=#FF0000;strokeColor=#b85450;strokeWidth=2;fontFamily=Comic Sans MS;fontSize=46;fontColor=#FFFFFF;shape=arrow;fillColor=#f8cecc;" edge="1" parent="1">
                    <mxGeometry width="50" height="50" relative="1" as="geometry">
                        <mxPoint x="74" y="1094.0000000000005" as="sourcePoint"/>
                        <mxPoint x="323" y="1090.9999999999995" as="targetPoint"/>
                        <Array as="points">
                            <mxPoint x="164" y="967"/>
                        </Array>
                    </mxGeometry>
                </mxCell>
                <mxCell id="259" value="seller_homeP" style="rounded=1;whiteSpace=wrap;html=1;labelBackgroundColor=none;labelBorderColor=none;fontFamily=Comic Sans MS;fontSize=30;fillColor=#f8cecc;strokeColor=#b85450;" vertex="1" parent="1">
                    <mxGeometry x="332" y="1044" width="351" height="93" as="geometry"/>
                </mxCell>
                <mxCell id="260" value="" style="edgeStyle=elbowEdgeStyle;elbow=horizontal;endArrow=classic;html=1;curved=0;rounded=0;labelBorderColor=#FF0000;strokeColor=#b85450;strokeWidth=2;fontFamily=Comic Sans MS;fontSize=46;fontColor=#FFFFFF;shape=arrow;fillColor=#f8cecc;entryX=0;entryY=0.5;entryDx=0;entryDy=0;" edge="1" parent="1" target="261">
                    <mxGeometry width="50" height="50" relative="1" as="geometry">
                        <mxPoint x="670.9999999999995" y="1054.0000000000005" as="sourcePoint"/>
                        <mxPoint x="937" y="1088.9999999999995" as="targetPoint"/>
                        <Array as="points">
                            <mxPoint x="778" y="965"/>
                        </Array>
                    </mxGeometry>
                </mxCell>
                <mxCell id="261" value="add/update_promotions" style="rounded=1;whiteSpace=wrap;html=1;labelBackgroundColor=none;labelBorderColor=none;fontFamily=Comic Sans MS;fontSize=30;fillColor=#f8cecc;strokeColor=#b85450;" vertex="1" parent="1">
                    <mxGeometry x="802" y="947" width="351" height="93" as="geometry"/>
                </mxCell>
                <mxCell id="262" value="data_base + activ ?" style="rounded=1;whiteSpace=wrap;html=1;labelBackgroundColor=none;labelBorderColor=none;fontFamily=Comic Sans MS;fontSize=30;fillColor=#f8cecc;strokeColor=#b85450;" vertex="1" parent="1">
                    <mxGeometry x="799" y="1060" width="351" height="93" as="geometry"/>
                </mxCell>
                <mxCell id="263" value="" style="edgeStyle=elbowEdgeStyle;elbow=horizontal;endArrow=classic;html=1;curved=0;rounded=0;labelBorderColor=#FF0000;strokeColor=#b85450;strokeWidth=2;fontFamily=Comic Sans MS;fontSize=46;fontColor=#FFFFFF;shape=arrow;fillColor=#f8cecc;entryX=0;entryY=0.387;entryDx=0;entryDy=0;exitX=1;exitY=0;exitDx=0;exitDy=0;entryPerimeter=0;" edge="1" parent="1" target="262">
                    <mxGeometry width="50" height="50" relative="1" as="geometry">
                        <mxPoint x="679.9999999999995" y="1101.5000000000005" as="sourcePoint"/>
                        <mxPoint x="799" y="1051.0000000000005" as="targetPoint"/>
                        <Array as="points">
                            <mxPoint x="775" y="1022.5"/>
                        </Array>
                    </mxGeometry>
                </mxCell>
                <mxCell id="264" value="" style="edgeStyle=elbowEdgeStyle;elbow=horizontal;endArrow=classic;html=1;curved=0;rounded=0;labelBorderColor=#FF0000;strokeColor=#b85450;strokeWidth=2;fontFamily=Comic Sans MS;fontSize=46;fontColor=#FFFFFF;shape=arrow;fillColor=#f8cecc;entryX=0;entryY=0.25;entryDx=0;entryDy=0;" edge="1" parent="1" target="265">
                    <mxGeometry width="50" height="50" relative="1" as="geometry">
                        <mxPoint x="668" y="1138" as="sourcePoint"/>
                        <mxPoint x="763" y="1201" as="targetPoint"/>
                        <Array as="points">
                            <mxPoint x="756" y="1063.51"/>
                        </Array>
                    </mxGeometry>
                </mxCell>
                <mxCell id="265" value="&lt;span style=&quot;font-weight: 700;&quot;&gt;number of transactions&lt;/span&gt;" style="rounded=1;whiteSpace=wrap;html=1;labelBackgroundColor=none;labelBorderColor=none;fontFamily=Comic Sans MS;fontSize=30;fillColor=#f8cecc;strokeColor=#b85450;" vertex="1" parent="1">
                    <mxGeometry x="799" y="1166" width="351" height="93" as="geometry"/>
                </mxCell>
                <mxCell id="266" value="" style="edgeStyle=elbowEdgeStyle;elbow=horizontal;endArrow=classic;html=1;curved=0;rounded=0;labelBorderColor=#FF0000;strokeColor=#b85450;strokeWidth=2;fontFamily=Comic Sans MS;fontSize=46;fontColor=#FFFFFF;shape=arrow;fillColor=#f8cecc;entryX=0.009;entryY=0.645;entryDx=0;entryDy=0;entryPerimeter=0;exitX=0.75;exitY=0;exitDx=0;exitDy=0;" edge="1" parent="1" source="259" target="267">
                    <mxGeometry width="50" height="50" relative="1" as="geometry">
                        <mxPoint x="624" y="1028" as="sourcePoint"/>
                        <mxPoint x="764" y="918" as="targetPoint"/>
                        <Array as="points">
                            <mxPoint x="706" y="965"/>
                        </Array>
                    </mxGeometry>
                </mxCell>
                <mxCell id="267" value="search" style="rounded=1;whiteSpace=wrap;html=1;labelBackgroundColor=none;labelBorderColor=none;fontFamily=Comic Sans MS;fontSize=30;fillColor=#f8cecc;strokeColor=#b85450;" vertex="1" parent="1">
                    <mxGeometry x="802" y="846" width="351" height="93" as="geometry"/>
                </mxCell>
                <mxCell id="268" value="" style="edgeStyle=elbowEdgeStyle;elbow=horizontal;endArrow=classic;html=1;curved=0;rounded=0;labelBorderColor=#FF0000;strokeColor=#82b366;strokeWidth=2;fontFamily=Comic Sans MS;fontSize=46;fontColor=#FFFFFF;exitX=1;exitY=1;exitDx=0;exitDy=0;shape=arrow;fillColor=#63FFB6;entryX=0.25;entryY=0;entryDx=0;entryDy=0;" edge="1" parent="1" target="246">
                    <mxGeometry width="50" height="50" relative="1" as="geometry">
                        <mxPoint x="-570" y="918" as="sourcePoint"/>
                        <mxPoint x="-399" y="1055.25" as="targetPoint"/>
                        <Array as="points">
                            <mxPoint x="-469" y="823"/>
                        </Array>
                    </mxGeometry>
                </mxCell>
                <mxCell id="270" value="" style="edgeStyle=elbowEdgeStyle;elbow=horizontal;endArrow=classic;html=1;curved=0;rounded=0;labelBorderColor=#FF0000;strokeColor=#6c8ebf;strokeWidth=2;fontFamily=Comic Sans MS;fontSize=46;fontColor=#FFFFFF;shape=arrow;fillColor=#A6B2FF;" edge="1" parent="1" source="231">
                    <mxGeometry width="50" height="50" relative="1" as="geometry">
                        <mxPoint x="-462" y="910.0000000000005" as="sourcePoint"/>
                        <mxPoint x="-218" y="851" as="targetPoint"/>
                        <Array as="points">
                            <mxPoint x="-376" y="773"/>
                        </Array>
                    </mxGeometry>
                </mxCell>
                <mxCell id="271" value="Register" style="rounded=1;whiteSpace=wrap;html=1;labelBackgroundColor=none;labelBorderColor=none;fontFamily=Comic Sans MS;fontSize=30;fillColor=#85A1FF;strokeColor=#6c8ebf;fontColor=#212121;" vertex="1" parent="1">
                    <mxGeometry x="-225" y="820" width="351" height="93" as="geometry"/>
                </mxCell>
                <mxCell id="272" value="" style="edgeStyle=elbowEdgeStyle;elbow=horizontal;endArrow=classic;html=1;curved=0;rounded=0;labelBorderColor=#FF0000;strokeColor=#6c8ebf;strokeWidth=2;fontFamily=Comic Sans MS;fontSize=46;fontColor=#212121;shape=arrow;fillColor=#85A1FF;" edge="1" parent="1">
                    <mxGeometry width="50" height="50" relative="1" as="geometry">
                        <mxPoint x="126" y="843.5000000000005" as="sourcePoint"/>
                        <mxPoint x="425" y="817" as="targetPoint"/>
                        <Array as="points">
                            <mxPoint x="237" y="745"/>
                        </Array>
                    </mxGeometry>
                </mxCell>
                <mxCell id="273" value="" style="edgeStyle=elbowEdgeStyle;elbow=horizontal;endArrow=classic;html=1;curved=0;rounded=0;labelBorderColor=#FF0000;strokeColor=#6c8ebf;strokeWidth=2;fontFamily=Comic Sans MS;fontSize=46;fontColor=#FFFFFF;shape=arrow;fillColor=#A6B2FF;exitX=1;exitY=0.75;exitDx=0;exitDy=0;" edge="1" parent="1" source="271">
                    <mxGeometry width="50" height="50" relative="1" as="geometry">
                        <mxPoint x="123" y="902.7500000000005" as="sourcePoint"/>
                        <mxPoint x="401" y="920" as="targetPoint"/>
                        <Array as="points">
                            <mxPoint x="792" y="903.25"/>
                        </Array>
                    </mxGeometry>
                </mxCell>
                <mxCell id="274" value="buyer_homeP" style="rounded=1;whiteSpace=wrap;html=1;labelBackgroundColor=none;labelBorderColor=none;fontFamily=Comic Sans MS;fontSize=30;fillColor=#85A1FF;strokeColor=#6c8ebf;fontColor=#212121;" vertex="1" parent="1">
                    <mxGeometry x="436" y="783" width="204" height="63" as="geometry"/>
                </mxCell>
                <mxCell id="275" value="seller_homeP" style="rounded=1;whiteSpace=wrap;html=1;labelBackgroundColor=none;labelBorderColor=none;fontFamily=Comic Sans MS;fontSize=30;fillColor=#85A1FF;strokeColor=#6c8ebf;fontColor=#212121;" vertex="1" parent="1">
                    <mxGeometry x="416" y="894" width="204" height="63" as="geometry"/>
                </mxCell>
                <mxCell id="276" value="search" style="rounded=1;whiteSpace=wrap;html=1;labelBackgroundColor=none;labelBorderColor=none;fontFamily=Comic Sans MS;fontSize=30;fillColor=#D771E7;strokeColor=#9673a6;" vertex="1" parent="1">
                    <mxGeometry x="806" y="288.5" width="351" height="93" as="geometry"/>
                </mxCell>
                <mxCell id="277" value="" style="edgeStyle=elbowEdgeStyle;elbow=horizontal;endArrow=classic;html=1;curved=0;rounded=0;labelBorderColor=#FF0000;strokeColor=#9673a6;strokeWidth=2;fontFamily=Comic Sans MS;fontSize=46;fontColor=#FFFFFF;shape=arrow;fillColor=#D771E7;entryX=0;entryY=0.5;entryDx=0;entryDy=0;" edge="1" parent="1" target="276">
                    <mxGeometry width="50" height="50" relative="1" as="geometry">
                        <mxPoint x="511" y="586" as="sourcePoint"/>
                        <mxPoint x="725.9089999999997" y="458.9950000000001" as="targetPoint"/>
                        <Array as="points">
                            <mxPoint x="626.75" y="518.01"/>
                        </Array>
                    </mxGeometry>
                </mxCell>
                <mxCell id="293" style="edgeStyle=none;shape=arrow;html=1;exitX=1;exitY=1;exitDx=0;exitDy=0;labelBorderColor=#FF0000;strokeColor=#82b366;strokeWidth=2;fontFamily=Comic Sans MS;fontSize=46;fontColor=#FFFFFF;endArrow=baseDash;endFill=0;fillColor=#63FFB6;" edge="1" parent="1" source="283">
                    <mxGeometry relative="1" as="geometry">
                        <mxPoint x="701.7144949776789" y="1538.14306640625" as="targetPoint"/>
                    </mxGeometry>
                </mxCell>
                <mxCell id="300" style="edgeStyle=none;shape=arrow;html=1;exitX=0.75;exitY=1;exitDx=0;exitDy=0;labelBorderColor=#FF0000;strokeColor=#82b366;strokeWidth=2;fontFamily=Comic Sans MS;fontSize=46;fontColor=#FFFFFF;endArrow=baseDash;endFill=0;fillColor=#63FFB6;" edge="1" parent="1" source="283">
                    <mxGeometry relative="1" as="geometry">
                        <mxPoint x="514.5716378348216" y="1588.14306640625" as="targetPoint"/>
                    </mxGeometry>
                </mxCell>
                <mxCell id="283" value="UserhomeP" style="rounded=1;whiteSpace=wrap;html=1;labelBackgroundColor=none;labelBorderColor=none;fontFamily=Comic Sans MS;fontSize=30;fillColor=#63FFB6;strokeColor=#82b366;" vertex="1" parent="1">
                    <mxGeometry x="154" y="1338" width="352" height="96" as="geometry"/>
                </mxCell>
                <mxCell id="284" value="" style="edgeStyle=elbowEdgeStyle;elbow=horizontal;endArrow=classic;html=1;curved=0;rounded=0;labelBorderColor=#FF0000;strokeColor=#82b366;strokeWidth=2;fontFamily=Comic Sans MS;fontSize=46;fontColor=#FFFFFF;shape=arrow;fillColor=#63FFB6;" edge="1" parent="1">
                    <mxGeometry width="50" height="50" relative="1" as="geometry">
                        <mxPoint x="507.98999999999955" y="1354.5000000000005" as="sourcePoint"/>
                        <mxPoint x="806.99" y="1328" as="targetPoint"/>
                        <Array as="points">
                            <mxPoint x="618.99" y="1256"/>
                        </Array>
                    </mxGeometry>
                </mxCell>
                <mxCell id="285" value="" style="edgeStyle=elbowEdgeStyle;elbow=horizontal;endArrow=classic;html=1;curved=0;rounded=0;labelBorderColor=#FF0000;strokeColor=#82b366;strokeWidth=2;fontFamily=Comic Sans MS;fontSize=46;fontColor=#FFFFFF;shape=arrow;fillColor=#63FFB6;exitX=1;exitY=0.75;exitDx=0;exitDy=0;" edge="1" parent="1" source="283">
                    <mxGeometry width="50" height="50" relative="1" as="geometry">
                        <mxPoint x="504.99" y="1413.7500000000005" as="sourcePoint"/>
                        <mxPoint x="782.9899999999996" y="1431" as="targetPoint"/>
                        <Array as="points">
                            <mxPoint x="1173.99" y="1414.25"/>
                        </Array>
                    </mxGeometry>
                </mxCell>
                <mxCell id="286" value="checkout and pay&amp;nbsp;" style="rounded=1;whiteSpace=wrap;html=1;labelBackgroundColor=none;labelBorderColor=none;fontFamily=Comic Sans MS;fontSize=30;fillColor=#63FFB6;strokeColor=#82b366;" vertex="1" parent="1">
                    <mxGeometry x="817.99" y="1294" width="300.01" height="63" as="geometry"/>
                </mxCell>
                <mxCell id="287" value="promotions_by location&amp;nbsp;" style="rounded=1;whiteSpace=wrap;html=1;labelBackgroundColor=none;labelBorderColor=none;fontFamily=Comic Sans MS;fontSize=30;fillColor=#63FFB6;strokeColor=#82b366;" vertex="1" parent="1">
                    <mxGeometry x="797.99" y="1405" width="342.01" height="63" as="geometry"/>
                </mxCell>
                <mxCell id="288" value="" style="edgeStyle=elbowEdgeStyle;elbow=horizontal;endArrow=classic;html=1;curved=0;rounded=0;labelBorderColor=#FF0000;strokeColor=#82b366;strokeWidth=2;fontFamily=Comic Sans MS;fontSize=46;fontColor=#FFFFFF;shape=arrow;fillColor=#63FFB6;exitX=1;exitY=0;exitDx=0;exitDy=0;" edge="1" parent="1">
                    <mxGeometry width="50" height="50" relative="1" as="geometry">
                        <mxPoint x="39.999999999999545" y="1377.25" as="sourcePoint"/>
                        <mxPoint x="159" y="1377" as="targetPoint"/>
                        <Array as="points">
                            <mxPoint x="135" y="1298.25"/>
                        </Array>
                    </mxGeometry>
                </mxCell>
                <mxCell id="298" style="edgeStyle=none;shape=arrow;html=1;exitX=0.25;exitY=1;exitDx=0;exitDy=0;entryX=0;entryY=0;entryDx=0;entryDy=0;labelBorderColor=#FF0000;strokeColor=#82b366;strokeWidth=2;fontFamily=Comic Sans MS;fontSize=46;fontColor=#FFFFFF;endArrow=baseDash;endFill=0;fillColor=#63FFB6;" edge="1" parent="1" source="294" target="297">
                    <mxGeometry relative="1" as="geometry"/>
                </mxCell>
                <mxCell id="294" value="send_picture_invoice_to mail&amp;nbsp;" style="rounded=1;whiteSpace=wrap;html=1;labelBackgroundColor=none;labelBorderColor=none;fontFamily=Comic Sans MS;fontSize=30;fillColor=#63FFB6;strokeColor=#82b366;" vertex="1" parent="1">
                    <mxGeometry x="715" y="1505" width="443" height="72" as="geometry"/>
                </mxCell>
                <mxCell id="297" value="company_mail" style="rounded=1;whiteSpace=wrap;html=1;labelBackgroundColor=none;labelBorderColor=none;fontFamily=Comic Sans MS;fontSize=30;fillColor=#63FFB6;strokeColor=#82b366;" vertex="1" parent="1">
                    <mxGeometry x="1045" y="1673" width="231" height="80" as="geometry"/>
                </mxCell>
                <mxCell id="301" value="get_permissions" style="rounded=1;whiteSpace=wrap;html=1;labelBackgroundColor=none;labelBorderColor=none;fontFamily=Comic Sans MS;fontSize=30;fillColor=#63FFB6;strokeColor=#82b366;" vertex="1" parent="1">
                    <mxGeometry x="371" y="1597" width="300.01" height="63" as="geometry"/>
                </mxCell>
            </root>
        </mxGraphModel>
    </diagram>
</mxfile>